<?xml version="1.0" encoding="utf-8"?>
<!-- Generator: Adobe Illustrator 27.5.0, SVG Export Plug-In . SVG Version: 6.00 Build 0)  -->
<svg version="1.1" xmlns="http://www.w3.org/2000/svg" xmlns:xlink="http://www.w3.org/1999/xlink" x="0px" y="0px"
	 viewBox="0 0 1000 1000" style="enable-background:new 0 0 1000 1000;" xml:space="preserve">
<g id="Layer_2">
	<rect style="fill:#FFFFFF;" width="1000" height="1000"/>
</g>
<g id="Layer_1">
	<g>
		<polygon style="fill:#40B3BF;" points="628.539,212.253 499.998,115.334 371.98,211.861 82.496,430.136 371.98,648.41 
			499.998,744.938 628.539,648.019 917.505,430.136 		"/>
		<polygon style="fill:#40B3BF;" points="498.756,777.806 368.656,677.073 102.96,884.666 895.61,884.666 629.388,676.664 		"/>
		<polygon style="fill:#40B3BF;" points="917.505,866.602 647.311,661.535 917.505,456.462 		"/>
		<polygon style="fill:#40B3BF;" points="82.496,866.602 352.689,661.535 82.496,456.462 		"/>
		<g>
			<path style="fill:#FFFFFF;" d="M526.533,560.51c-24.735,11.416-46.426,15.602-72.684,15.602
				c-76.488,0-111.498-49.851-94.373-118.728c18.646-74.966,91.329-140.419,180.756-140.419c79.532,0,109.215,50.992,94.754,109.215
				c-14.08,56.7-59.364,86.763-95.135,86.763c-17.124,0-27.779-11.416-23.213-33.487h-1.142
				c-16.743,19.407-39.195,33.487-62.408,33.487c-23.974,0-38.054-18.646-30.443-49.09c11.797-48.328,58.983-86.762,110.737-86.762
				c17.885,0,34.248,3.805,43.762,8.752l-29.682,66.594c-12.178,27.779-9.514,39.576,2.283,39.957
				c16.743,0,50.611-17.886,62.408-64.691c12.938-52.515-13.699-92.852-80.294-92.852c-55.94,0-130.905,47.567-148.791,120.25
				c-16.363,64.691,20.93,102.364,79.152,102.364c21.311,0,44.143-4.946,62.408-14.08L526.533,560.51z M543.276,401.445
				c-3.425-1.142-11.797-3.045-19.788-3.045c-29.302,0-61.647,27.019-70.019,59.744c-3.806,15.222,0,28.921,17.885,28.921
				c19.407,0,44.523-25.876,54.417-47.186L543.276,401.445z"/>
		</g>
	</g>
</g>
</svg>
